GIL02_fast3_ik
nRows=3
nColumns=375

# SIMM Motion File Header:
name GIL02_fast3_ik
datacolumns 375
datarows 3
otherdata 1
range 0.54167000 0.55833000
endheader
time	pelvis_tx	pelvis_ty	pelvis_tz	pelvis_tilt	pelvis_list	pelvis_rotation	hip_flexion_r	hip_adduction_r	hip_rotation_r	knee_angle_r	ankle_angle_r	hip_flexion_l	hip_adduction_l	hip_rotation_l	knee_angle_l	ankle_angle_l	lumbar_extension	lumbar_bending	lumbar_rotation	subtalar_angle_r	mtp_angle_r	subtalar_angle_l	mtp_angle_l	asis_r_px	asis_r_py	asis_r_pz	asis_l_px	asis_l_py	asis_l_pz	midasis_px	midasis_py	midasis_pz	psis_r_px	psis_r_py	psis_r_pz	psis_l_px	psis_l_py	psis_l_pz	hip_r_px	hip_r_py	hip_r_pz	hip_l_px	hip_l_py	hip_l_pz	midhip_px	midhip_py	midhip_pz	epicondLat_r_px	epicondLat_r_py	epicondLat_r_pz	epicondMed_r_px	epicondMed_r_py	epicondMed_r_pz	thighwand_r_px	thighwand_r_py	thighwand_r_pz	upperleg1_r_px	upperleg1_r_py	upperleg1_r_pz	upperleg2_r_px	upperleg2_r_py	upperleg2_r_pz	malleolusLat_r_px	malleolusLat_r_py	malleolusLat_r_pz	malleolusMedv_r_px	malleolusMedv_r_py	malleolusMedv_r_pz	shankwand_r_px	shankwand_r_py	shankwand_r_pz	lowerleg1_r_px	lowerleg1_r_py	lowerleg1_r_pz	knee_r_px	knee_r_py	knee_r_pz	ankle_r_px	ankle_r_py	ankle_r_pz	toe_r_px	toe_r_py	toe_r_pz	epicondLat_l_px	epicondLat_l_py	epicondLat_l_pz	epicondMed_l_px	epicondMed_l_py	epicondMed_l_pz	thighwand_l_px	thighwand_l_py	thighwand_l_pz	upperleg1_l_px	upperleg1_l_py	upperleg1_l_pz	upperleg2_l_px	upperleg2_l_py	upperleg2_l_pz	malleolusLat_l_px	malleolusLat_l_py	malleolusLat_l_pz	malleolusMedv_l_px	malleolusMedv_l_py	malleolusMedv_l_pz	shankwand_l_px	shankwand_l_py	shankwand_l_pz	lowerleg1_l_px	lowerleg1_l_py	lowerleg1_l_pz	knee_l_px	knee_l_py	knee_l_pz	ankle_l_px	ankle_l_py	ankle_l_pz	toe_l_px	toe_l_py	toe_l_pz	subclavicle_r_px	subclavicle_r_py	subclavicle_r_pz	subclavicle_l_px	subclavicle_l_py	subclavicle_l_pz	neck_px	neck_py	neck_pz	sternalnotch_px	sternalnotch_py	sternalnotch_pz	xyphoidprocess_px	xyphoidprocess_py	xyphoidprocess_pz	midhip_tx	midhip_ty	midhip_tz	hip_r_tx	hip_r_ty	hip_r_tz	hip_l_tx	hip_l_ty	hip_l_tz	knee_r_tx	knee_r_ty	knee_r_tz	knee_l_tx	knee_l_ty	knee_l_tz	ankle_r_tx	ankle_r_ty	ankle_r_tz	ankle_l_tx	ankle_l_ty	ankle_l_tz	midasis_tx	midasis_ty	midasis_tz	asis_r_tx	asis_r_ty	asis_r_tz	asis_l_tx	asis_l_ty	asis_l_tz	psis_r_tx	psis_r_ty	psis_r_tz	psis_l_tx	psis_l_ty	psis_l_tz	epicondLat_r_tx	epicondLat_r_ty	epicondLat_r_tz	epicondLat_l_tx	epicondLat_l_ty	epicondLat_l_tz	epicondMed_r_tx	epicondMed_r_ty	epicondMed_r_tz	epicondMed_l_tx	epicondMed_l_ty	epicondMed_l_tz	malleolusLat_r_tx	malleolusLat_r_ty	malleolusLat_r_tz	malleolusLat_l_tx	malleolusLat_l_ty	malleolusLat_l_tz	malleolusMedv_r_tx	malleolusMedv_r_ty	malleolusMedv_r_tz	malleolusMedv_l_tx	malleolusMedv_l_ty	malleolusMedv_l_tz	neck_tx	neck_ty	neck_tz	subclavicle_r_tx	subclavicle_r_ty	subclavicle_r_tz	subclavicle_l_tx	subclavicle_l_ty	subclavicle_l_tz	sternalnotch_tx	sternalnotch_ty	sternalnotch_tz	xyphoidprocess_tx	xyphoidprocess_ty	xyphoidprocess_tz	thighwand_r_tx	thighwand_r_ty	thighwand_r_tz	thighwand_l_tx	thighwand_l_ty	thighwand_l_tz	upperleg1_r_tx	upperleg1_r_ty	upperleg1_r_tz	upperleg1_l_tx	upperleg1_l_ty	upperleg1_l_tz	upperleg2_r_tx	upperleg2_r_ty	upperleg2_r_tz	upperleg2_l_tx	upperleg2_l_ty	upperleg2_l_tz	shankwand_r_tx	shankwand_r_ty	shankwand_r_tz	shankwand_l_tx	shankwand_l_ty	shankwand_l_tz	lowerleg1_r_tx	lowerleg1_r_ty	lowerleg1_r_tz	lowerleg1_l_tx	lowerleg1_l_ty	lowerleg1_l_tz	toe_r_tx	toe_r_ty	toe_r_tz	toe_l_tx	toe_l_ty	toe_l_tz	ground_force_vx	ground_force_vy	ground_force_vz	ground_force_px	ground_force_py	ground_force_pz	ground_force_vx	ground_force_vy	ground_force_vz	ground_force_px	ground_force_py	ground_force_pz	ground_torque_x	ground_torque_y	ground_torque_z	ground_torque_x	ground_torque_y	ground_torque_z	ground_marker_px	ground_marker_py	ground_marker_pz	ground_marker_px	ground_marker_py	ground_marker_pz	ground_marker_px	ground_marker_py	ground_marker_pz	ground_marker_px	ground_marker_py	ground_marker_pz	ground_marker_px	ground_marker_py	ground_marker_pz	ground_marker_px	ground_marker_py	ground_marker_pz	ground_marker_px	ground_marker_py	ground_marker_pz	ground_marker_px	ground_marker_py	ground_marker_pz	ground_marker_px	ground_marker_py	ground_marker_pz	ground_marker_px	ground_marker_py	ground_marker_pz	ground_marker_px	ground_marker_py	ground_marker_pz	ground_marker_px	ground_marker_py	ground_marker_pz	ground_marker_px	ground_marker_py	ground_marker_pz	ground_marker_px	ground_marker_py	ground_marker_pz	ground_marker_px	ground_marker_py	ground_marker_pz	ground_marker_px	ground_marker_py	ground_marker_pz	ground_marker_px	ground_marker_py	ground_marker_pz	ground_marker_px	ground_marker_py	ground_marker_pz	ground_marker_px	ground_marker_py	ground_marker_pz	ground_marker_px	ground_marker_py	ground_marker_pz	ground_marker_px	ground_marker_py	ground_marker_pz	ground_marker_px	ground_marker_py	ground_marker_pz	ground_marker_px	ground_marker_py	ground_marker_pz	ground_marker_px	ground_marker_py	ground_marker_pz	ground_marker_px	ground_marker_py	ground_marker_pz	ground_marker_px	ground_marker_py	ground_marker_pz	ground_marker_px	ground_marker_py	ground_marker_pz	ground_marker_px	ground_marker_py	ground_marker_pz	ground_marker_px	ground_marker_py	ground_marker_pz	ground_marker_px	ground_marker_py	ground_marker_pz	ground_marker_px	ground_marker_py	ground_marker_pz	ground_marker_px	ground_marker_py	ground_marker_pz	ground_marker_px	ground_marker_py	ground_marker_pz	ground_marker_px	ground_marker_py	ground_marker_pz	ground_marker_px	ground_marker_py	ground_marker_pz	ground_marker_px	ground_marker_py	ground_marker_pz	ground_marker_px	ground_marker_py	ground_marker_pz
      0.54167000	      1.21731737	      0.91933052	     -0.17337939	      0.27359496	      7.49257370	     -4.83957685	    -13.39561761	     -8.01150430	      5.87737214	    -30.71798566	    -15.10762389	     22.76943579	     11.46445194	      0.16963309	    -15.89698805	     -6.82964138	      0.40452248	     -6.70508259	      7.87795942	      0.00000000	      0.00000000	      0.00000000	      0.00000000	      1.25368621	      0.90395704	     -0.05357636	      1.27583256	      0.94138232	     -0.28773215	      1.23029600	      0.91924920	     -0.17228994	      1.07633424	      0.97094322	     -0.14787242	      1.08903462	      0.98096173	     -0.23231254	      1.14556094	      0.84864786	     -0.11015564	      1.15857186	      0.86889711	     -0.26364401	      1.15206640	      0.85877249	     -0.18689983	      1.07074116	      0.42698607	     -0.03886774	      1.03791806	      0.44162915	     -0.14503538	      1.15177120	      0.52427829	      0.02776820	      1.17448843	      0.58541047	     -0.04266292	      1.14659398	      0.50239910	     -0.06211923	      0.74857151	      0.15270066	     -0.06096381	      0.77163656	      0.15036742	     -0.12898496	      0.86155736	      0.22770597	      0.02559217	      0.82745249	      0.21664332	     -0.04692931	      1.04686106	      0.43785091	     -0.11320753	      0.76910829	      0.15336670	     -0.10520361	      0.79600977	      0.02850128	     -0.08690640	      1.34084398	      0.46497900	     -0.28263867	      1.31295280	      0.47278100	     -0.17583043	      1.43289849	      0.61957141	     -0.21332038	      1.35709970	      0.64823414	     -0.26828087	      1.36908523	      0.56237518	     -0.26145449	      1.33312166	      0.06605730	     -0.23151613	      1.34861966	      0.08544999	     -0.16921441	      1.35949320	      0.20041576	     -0.32224100	      1.33721042	      0.16616155	     -0.25190261	      1.31045387	      0.47958863	     -0.21755232	      1.35044999	      0.08492294	     -0.18960177	      1.46836852	      0.04554337	     -0.21195092	      1.16260307	      1.32360664	     -0.11256414	      1.16979594	      1.32923099	     -0.22050913	      1.02953782	      1.38685468	     -0.16302200	      1.14828096	      1.33249869	     -0.16451147	      1.24645569	      1.17824055	     -0.17776992	      1.15408400	      0.86785500	     -0.18374700	      1.13983300	      0.83584300	     -0.11485400	      1.15412500	      0.85246000	     -0.26367800	      1.04585500	      0.43983800	     -0.10370700	      1.31067000	      0.46337000	     -0.21250200	      0.76359100	      0.14950100	     -0.12900100	      1.35116100	      0.07117100	     -0.17318900	      1.23214800	      0.93043700	     -0.17145200	      1.22061900	      0.91703300	     -0.05140400	      1.24367700	      0.94384100	     -0.29150000	      1.04386900	      0.96904800	     -0.15347500	      1.05470200	      0.97264800	     -0.23898800	      1.04847800	      0.44086100	     -0.04527500	      1.32060200	      0.45986400	     -0.26953700	      1.04696600	      0.42801600	     -0.15462400	      1.29822300	      0.44638300	     -0.15237800	      0.74888600	      0.16070600	     -0.09353000	      1.33664500	      0.06608100	     -0.20902700	      0.77782900	      0.15871200	     -0.15771100	      1.35362000	      0.08716300	     -0.14671200	      1.03145300	      1.38944400	     -0.16270300	      1.16103400	      1.31969200	     -0.11290700	      1.16810500	      1.32344000	     -0.22221600	      1.14717600	      1.32879400	     -0.16512000	      1.23643400	      1.16901900	     -0.17699800	      1.10810800	      0.52708500	      0.03372200	      1.41980500	      0.59350500	     -0.21614500	      1.13810300	      0.58783900	     -0.02813600	      1.33999900	      0.61106900	     -0.26438900	      1.12504500	      0.50175000	     -0.05058600	      1.34902000	      0.52486500	     -0.25089200	      0.84410900	      0.25116200	      0.00220900	      1.35321600	      0.19817100	     -0.30376800	      0.82153700	      0.22963200	     -0.07419300	      1.33908200	      0.16634600	     -0.22921300	      0.80372400	      0.04131600	     -0.14167200	      1.47518600	      0.03958200	     -0.17852400	     42.68981866	    141.16051476	      3.39086017	      0.81499542	      0.00000000	     -0.15062660	   -127.21563851	    551.16051732	    -35.49029156	      1.41474060	      0.00000000	     -0.17828986	      0.00000000	      0.73463324	      0.00000000	      0.00000000	      0.82598792	      0.00000000	      1.15408373	      0.86785465	     -0.18374676	      1.13983297	      0.83584321	     -0.11485363	      1.15412533	      0.85246038	     -0.26367763	      1.04585481	      0.43983832	     -0.10370692	      1.31067026	      0.46336964	     -0.21250170	      0.76359141	      0.14950065	     -0.12900102	      1.35116112	      0.07117148	     -0.17318884	      1.23214817	      0.93043685	     -0.17145208	      1.22061944	      0.91703266	     -0.05140418	      1.24367702	      0.94384098	     -0.29149997	      1.04386914	      0.96904814	     -0.15347542	      1.05470192	      0.97264755	     -0.23898777	      1.04847765	      0.44086063	     -0.04527468	      1.32060218	      0.45986384	     -0.26953739	      1.04696584	      0.42801642	     -0.15462428	      1.29822338	      0.44638327	     -0.15237813	      0.74888647	      0.16070645	     -0.09352998	      1.33664536	      0.06608054	     -0.20902705	      0.77782869	      0.15871221	     -0.15771079	      1.35361969	      0.08716269	     -0.14671190	      1.03145349	      1.38944376	     -0.16270272	      1.16103411	      1.31969237	     -0.11290713	      1.16810524	      1.32344043	     -0.22221619	      1.14717615	      1.32879412	     -0.16512045	      1.23643434	      1.16901898	     -0.17699802	      1.10810781	      0.52708483	      0.03372200	      1.41980517	      0.59350467	     -0.21614541	      1.13810277	      0.58783859	     -0.02813576	      1.33999944	      0.61106896	     -0.26438916	      1.12504470	      0.50175023	     -0.05058592	      1.34902012	      0.52486527	     -0.25089216	      0.84410894	      0.25116247	      0.00220859	      1.35321558	      0.19817053	     -0.30376783	      0.82153749	      0.22963156	     -0.07419337	      1.33908165	      0.16634558	     -0.22921333	      0.80372387	      0.04131560	     -0.14167218	      1.47518599	      0.03958246	     -0.17852448
      0.55000000	      1.23093488	      0.92054136	     -0.17379586	      0.05066491	      7.88518197	     -4.57340994	    -12.03065195	     -8.75787120	      5.21719734	    -33.14507751	    -20.27840515	     22.40861243	     12.23840630	      1.60348663	    -16.52790638	     -5.36780667	      0.71958288	     -7.26322848	      7.17808643	      0.00000000	      0.00000000	      0.00000000	      0.00000000	      1.26780515	      0.90422975	     -0.05427048	      1.28899420	      0.94318509	     -0.28826525	      1.24391806	      0.92041036	     -0.17276715	      1.09024120	      0.97243662	     -0.14728382	      1.10258486	      0.98299166	     -0.23171147	      1.15923898	      0.84966131	     -0.11072460	      1.17160835	      0.87091854	     -0.26412971	      1.16542366	      0.86028993	     -0.18742716	      1.09217981	      0.42737133	     -0.03553904	      1.05981439	      0.44027168	     -0.14207262	      1.17082893	      0.52691629	      0.03062069	      1.19283552	      0.58775225	     -0.04029090	      1.16670411	      0.50401348	     -0.05906598	      0.76385468	      0.15885171	     -0.05635203	      0.78727722	      0.15515499	     -0.12419035	      0.87798654	      0.23233751	      0.03000357	      0.84408385	      0.22115620	     -0.04259446	      1.06887533	      0.43649097	     -0.11016258	      0.78467215	      0.15850461	     -0.10046411	      0.79746819	      0.03139083	     -0.08234782	      1.35089251	      0.46555545	     -0.28061351	      1.32064326	      0.47317953	     -0.17443609	      1.44263063	      0.61909787	     -0.20859466	      1.36834411	      0.64861030	     -0.26514723	      1.37945507	      0.56262767	     -0.25839827	      1.33437834	      0.06635314	     -0.23209670	      1.34878415	      0.08509168	     -0.16933437	      1.36543011	      0.20068800	     -0.32136367	      1.34085773	      0.16647340	     -0.25177256	      1.31930940	      0.48015924	     -0.21614591	      1.35108010	      0.08464448	     -0.18967648	      1.46958437	      0.04599595	     -0.21012263	      1.17559536	      1.32534475	     -0.11278740	      1.18368179	      1.33062364	     -0.22068658	      1.04288005	      1.38826382	     -0.16456103	      1.16169649	      1.33404873	     -0.16488134	      1.26016308	      1.17986828	     -0.17681283	      1.16660700	      0.86889400	     -0.18348400	      1.15393200	      0.83699500	     -0.11596300	      1.16779200	      0.85468400	     -0.26470400	      1.06735300	      0.43827500	     -0.10134200	      1.31987100	      0.46412000	     -0.21184600	      0.77939600	      0.15480000	     -0.12504700	      1.35154200	      0.07089900	     -0.17270600	      1.24637600	      0.93170600	     -0.17215500	      1.23524000	      0.91749300	     -0.05263700	      1.25751300	      0.94591900	     -0.29167200	      1.05752700	      0.97089100	     -0.15297900	      1.06869300	      0.97502700	     -0.23844500	      1.06953000	      0.43994500	     -0.04290600	      1.33115300	      0.46082600	     -0.26864300	      1.07073600	      0.42405000	     -0.15217700	      1.30671400	      0.44689500	     -0.15306200	      0.76473900	      0.16674100	     -0.08979600	      1.33765500	      0.06618400	     -0.20884400	      0.79463400	      0.16156300	     -0.15327400	      1.35395500	      0.08695600	     -0.14672500	      1.04472600	      1.39080300	     -0.16411400	      1.17442900	      1.32214500	     -0.11312300	      1.18172800	      1.32532700	     -0.22205300	      1.16063900	      1.33069100	     -0.16566100	      1.25086800	      1.17156800	     -0.17601000	      1.12669900	      0.52717300	      0.03567000	      1.43010300	      0.59358200	     -0.21217700	      1.15661300	      0.58737000	     -0.02673000	      1.35155500	      0.61285800	     -0.26205200	      1.14562900	      0.50102100	     -0.04797400	      1.36026000	      0.52640300	     -0.24921800	      0.86100100	      0.25570900	      0.00558100	      1.35886100	      0.19817100	     -0.30306400	      0.83842300	      0.23365800	     -0.07053400	      1.34124400	      0.16674900	     -0.22995200	      0.80911200	      0.04320700	     -0.14018200	      1.47544600	      0.03947000	     -0.17833400	     11.49884473	     88.28027138	      0.57598919	      0.82911359	      0.00000000	     -0.15556349	   -126.10895671	    576.45970532	    -27.64959909	      1.41244141	      0.00000000	     -0.17818939	      0.00000000	      0.45279581	      0.00000000	      0.00000000	      1.46682153	      0.00000000	      1.16660738	      0.86889446	     -0.18348362	      1.15393245	      0.83699542	     -0.11596298	      1.16779184	      0.85468370	     -0.26470447	      1.06735289	      0.43827486	     -0.10134180	      1.31987131	      0.46412021	     -0.21184641	      0.77939564	      0.15480046	     -0.12504703	      1.35154223	      0.07089926	     -0.17270616	      1.24637628	      0.93170601	     -0.17215453	      1.23523998	      0.91749305	     -0.05263730	      1.25751257	      0.94591898	     -0.29167175	      1.05752707	      0.97089076	     -0.15297897	      1.06869268	      0.97502673	     -0.23844504	      1.06953049	      0.43994489	     -0.04290619	      1.33115256	      0.46082622	     -0.26864326	      1.07073641	      0.42405036	     -0.15217689	      1.30671382	      0.44689462	     -0.15306236	      0.76473892	      0.16674116	     -0.08979650	      1.33765531	      0.06618374	     -0.20884365	      0.79463387	      0.16156264	     -0.15327379	      1.35395479	      0.08695619	     -0.14672488	      1.04472637	      1.39080274	     -0.16411416	      1.17442930	      1.32214546	     -0.11312264	      1.18172753	      1.32532668	     -0.22205341	      1.16063917	      1.33069146	     -0.16566135	      1.25086820	      1.17156839	     -0.17600958	      1.12669873	      0.52717286	      0.03566985	      1.43010283	      0.59358245	     -0.21217713	      1.15661275	      0.58737034	     -0.02673047	      1.35155523	      0.61285764	     -0.26205185	      1.14562857	      0.50102103	     -0.04797372	      1.36025965	      0.52640349	     -0.24921818	      0.86100060	      0.25570872	      0.00558073	      1.35886133	      0.19817142	     -0.30306387	      0.83842289	      0.23365812	     -0.07053372	      1.34124351	      0.16674893	     -0.22995190	      0.80911207	      0.04320733	     -0.14018200	      1.47544575	      0.03947026	     -0.17833376
      0.55833000	      1.24443417	      0.92189396	     -0.17384468	     -0.15819361	      8.28263814	     -4.33366483	    -10.55772525	     -9.51444157	      4.64273134	    -35.68485521	    -24.96420392	     21.92876736	     12.93924140	      2.89826315	    -16.95465305	     -4.03920128	      1.01830462	     -7.81794502	      6.26297598	      0.00000000	      0.00000000	      0.00000000	      0.00000000	      1.28174698	      0.90464030	     -0.05458921	      1.30209001	      0.94515562	     -0.28839408	      1.25742102	      0.92171633	     -0.17287076	      1.10401111	      0.97403161	     -0.14639021	      1.11603871	      0.98513531	     -0.23079311	      1.17278175	      0.85079593	     -0.11096969	      1.18458335	      0.87308063	     -0.26427367	      1.17868255	      0.86193828	     -0.18762168	      1.11440516	      0.42791575	     -0.03195605	      1.08247885	      0.43904662	     -0.13882119	      1.19043169	      0.52980358	      0.03370085	      1.21158512	      0.59039498	     -0.03767823	      1.18740349	      0.50592425	     -0.05577462	      0.78012365	      0.16518678	     -0.05179169	      0.80388549	      0.16016299	     -0.11942641	      0.89533756	      0.23709916	      0.03445157	      0.86165100	      0.22582749	     -0.03823305	      1.09167201	      0.43523447	     -0.10682441	      0.80120667	      0.16385031	     -0.09575853	      0.80079309	      0.03607168	     -0.07780579	      1.36003138	      0.46597109	     -0.27888793	      1.32772730	      0.47347102	     -0.17330864	      1.45185611	      0.61826910	     -0.20438018	      1.37902853	      0.64877262	     -0.26228824	      1.38912615	      0.56265372	     -0.25568627	      1.33558185	      0.06671192	     -0.23302808	      1.34901944	      0.08485197	     -0.16987636	      1.37080135	      0.20096538	     -0.32085890	      1.34421049	      0.16680872	     -0.25198502	      1.32741186	      0.48062573	     -0.21498394	      1.35172486	      0.08447544	     -0.19016950	      1.47071557	      0.04647828	     -0.20894297	      1.18822468	      1.32717951	     -0.11245286	      1.19766355	      1.33213938	     -0.22025731	      1.05609883	      1.38978064	     -0.16608617	      1.17497302	      1.33570799	     -0.16474412	      1.27376183	      1.18161063	     -0.17496250	      1.17921200	      0.87009600	     -0.18250700	      1.16776500	      0.83827300	     -0.11704900	      1.18127800	      0.85704500	     -0.26569000	      1.08952100	      0.43681800	     -0.09895800	      1.32834100	      0.46462100	     -0.21170800	      0.79615500	      0.16031600	     -0.12107300	      1.35187700	      0.07069200	     -0.17260400	      1.26034500	      0.93312700	     -0.17277400	      1.24952700	      0.91809900	     -0.05377900	      1.27116300	      0.94815400	     -0.29176900	      1.07107100	      0.97277000	     -0.15232800	      1.08250500	      0.97744600	     -0.23765600	      1.09124800	      0.43911500	     -0.04052800	      1.34082100	      0.46151800	     -0.26826400	      1.09357400	      0.42150800	     -0.14968900	      1.31472600	      0.44706400	     -0.15472100	      0.78168300	      0.17286300	     -0.08595700	      1.33840900	      0.06628100	     -0.20893800	      0.81173200	      0.16420600	     -0.14864900	      1.35420700	      0.08679600	     -0.14699400	      1.05753200	      1.39221100	     -0.16531600	      1.18814600	      1.32510600	     -0.11346800	      1.19554500	      1.32683400	     -0.22202500	      1.17404800	      1.33261300	     -0.16607800	      1.26586400	      1.17429000	     -0.17396800	      1.14575500	      0.52736600	      0.03756200	      1.43997900	      0.59346100	     -0.20895200	      1.17580800	      0.58711000	     -0.02524000	      1.36338700	      0.61413900	     -0.26051600	      1.16622300	      0.50092600	     -0.04544200	      1.37148600	      0.52729700	     -0.24828900	      0.87912300	      0.25995200	      0.00903500	      1.36349100	      0.19799000	     -0.30282900	      0.85701500	      0.23691700	     -0.06656500	      1.34329900	      0.16677800	     -0.23045700	      0.81598400	      0.04596900	     -0.13798600	      1.47562600	      0.03945000	     -0.17831800	     -5.15555722	     58.74850406	     -2.06393161	      0.84220044	      0.00000000	     -0.15855527	   -122.50540975	    604.40253514	    -18.15306290	      1.40943506	      0.00000000	     -0.17847586	      0.00000000	      0.12321331	      0.00000000	      0.00000000	      1.90521851	      0.00000000	      1.17921209	      0.87009609	     -0.18250705	      1.16776526	      0.83827341	     -0.11704892	      1.18127787	      0.85704470	     -0.26568955	      1.08952117	      0.43681803	     -0.09895780	      1.32834065	      0.46462139	     -0.21170752	      0.79615521	      0.16031639	     -0.12107302	      1.35187745	      0.07069236	     -0.17260410	      1.26034498	      0.93312675	     -0.17277381	      1.24952745	      0.91809934	     -0.05377898	      1.27116251	      0.94815415	     -0.29176864	      1.07107127	      0.97276962	     -0.15232763	      1.08250535	      0.97744560	     -0.23765586	      1.09124768	      0.43911460	     -0.04052840	      1.34082079	      0.46151847	     -0.26826385	      1.09357440	      0.42150840	     -0.14968902	      1.31472647	      0.44706362	     -0.15472081	      0.78168291	      0.17286275	     -0.08595690	      1.33840907	      0.06628097	     -0.20893785	      0.81173182	      0.16420583	     -0.14864892	      1.35420716	      0.08679593	     -0.14699368	      1.05753171	      1.39221096	     -0.16531605	      1.18814588	      1.32510579	     -0.11346825	      1.19554532	      1.32683384	     -0.22202501	      1.17404819	      1.33261347	     -0.16607778	      1.26586449	      1.17429006	     -0.17396845	      1.14575481	      0.52736551	      0.03756189	      1.43997872	      0.59346098	     -0.20895229	      1.17580843	      0.58710951	     -0.02523994	      1.36338735	      0.61413884	     -0.26051646	      1.16622329	      0.50092632	     -0.04544175	      1.37148583	      0.52729702	     -0.24828927	      0.87912303	      0.25995189	      0.00903518	      1.36349142	      0.19798994	     -0.30282867	      0.85701483	      0.23691711	     -0.06656542	      1.34329879	      0.16677830	     -0.23045656	      0.81598425	      0.04596884	     -0.13798635	      1.47562551	      0.03945017	     -0.17831792
